<svg xmlns="http://www.w3.org/2000/svg" xmlns:xlink="http://www.w3.org/1999/xlink" width="1080" zoomAndPan="magnify" viewBox="0 0 810 809.999993" height="1080" preserveAspectRatio="xMidYMid meet" version="1.0"><defs><g/></defs><g fill="#547036" fill-opacity="1"><g transform="translate(52.884505, 418.684766)"><g><path d="M 24.25 5.921875 C 32.21875 5.921875 38.046875 2.21875 38.703125 1.8125 C 40.265625 0.828125 41.671875 -0.328125 42.8125 -1.71875 L 43.640625 -2.796875 C 44.625 -4.515625 45.125 -7.890625 45.125 -10.9375 L 45.125 -11.921875 C 45.125 -12.90625 45.203125 -13.890625 45.203125 -14.953125 C 45.203125 -16.03125 45.125 -17.09375 45.125 -18.15625 L 45.125 -21.375 C 45.125 -22.9375 45.03125 -24.578125 45.03125 -26.140625 L 44.625 -31.390625 C 44.546875 -32.21875 44.296875 -32.953125 44.140625 -33.703125 L 43.484375 -35.671875 C 43.140625 -36.328125 42.90625 -36.984375 42.484375 -37.5625 L 41.265625 -39.28125 C 36.984375 -45.203125 26.546875 -45.53125 21.859375 -45.53125 L 19.71875 -45.53125 C 15.28125 -45.53125 9.125 -45.203125 4.1875 -45.203125 L 4.1875 -39.203125 C 4.1875 -37.890625 4.28125 -36.90625 4.28125 -35.59375 C 4.28125 -35.015625 4.359375 -34.515625 4.359375 -33.859375 L 4.359375 -28.765625 C 4.359375 -26.953125 4.28125 -25.3125 4.28125 -23.015625 L 4.28125 -20.375 C 4.28125 -19.8125 4.1875 -19.15625 4.1875 -18.578125 L 4.1875 -7.96875 C 4.1875 -6.828125 4.109375 -5.59375 4.109375 -4.4375 L 4.109375 -2.71875 C 4.109375 -2.390625 4.03125 -1.890625 4.03125 -1.3125 L 4.03125 1.890625 C 4.03125 3.375 4.109375 4.765625 4.109375 5.921875 C 7.96875 6.15625 7.71875 6.5 11.265625 6.5 L 12.25 6.5 C 15.78125 6.5 19.234375 6.078125 22.6875 6.078125 C 23.265625 6.078125 23.75 6 24.25 5.921875 Z M 18.90625 -2.390625 L 18.734375 -7.234375 C 18.734375 -8.140625 18.65625 -8.953125 18.65625 -9.859375 L 18.65625 -11.421875 C 18.65625 -14.625 18.328125 -17.75 18.328125 -20.953125 L 18.328125 -22.4375 C 18.328125 -24 18.15625 -25.640625 18.15625 -27.203125 L 18.15625 -28.109375 C 18.15625 -29.015625 18.078125 -30 18.078125 -30.90625 C 18.078125 -31.640625 18 -32.546875 18 -33.203125 L 18 -34.921875 C 18 -35.5 17.921875 -36.15625 17.921875 -36.734375 C 19.484375 -36.90625 21.203125 -37.15625 22.515625 -37.15625 L 24.078125 -37.15625 C 25.3125 -37.15625 26.796875 -36.8125 27.78125 -36.65625 L 28.765625 -36.40625 L 29.921875 -35.921875 L 30.734375 -35.421875 C 31.890625 -34.6875 32.625 -32.21875 32.796875 -31.5625 L 33.203125 -29.5 C 33.375 -28.6875 33.53125 -27.78125 33.609375 -26.796875 L 33.859375 -24.328125 C 34.03125 -21.78125 34.265625 -18.734375 34.265625 -15.9375 L 34.265625 -14.796875 C 34.265625 -13.390625 34.359375 -12 34.359375 -10.609375 L 33.9375 -8.546875 C 33.28125 -7.0625 33.375 -5.171875 31.5625 -4.03125 L 30.25 -3.28125 C 29.34375 -2.875 27.859375 -2.546875 27.125 -2.546875 L 26.21875 -2.546875 C 26.046875 -2.546875 25.890625 -2.46875 25.71875 -2.46875 L 25.234375 -2.46875 C 24.578125 -2.46875 24 -2.296875 23.34375 -2.296875 L 21.609375 -2.296875 C 20.875 -2.296875 20.21875 -2.390625 19.390625 -2.390625 Z M 18.90625 -2.390625 "/></g></g></g><g fill="#547036" fill-opacity="1"><g transform="translate(100.802795, 418.684766)"><g><path d="M 32.296875 -7.8125 C 32.703125 -10.4375 33.125 -12.15625 33.125 -14.140625 C 33.125 -15.046875 30.40625 -15.453125 28.84375 -15.453125 L 25.890625 -15.453125 C 24.65625 -15.453125 22.515625 -15.125 22.765625 -15.046875 C 22.359375 -15.046875 21.9375 -15.125 21.53125 -15.125 L 20.546875 -15.125 C 20.046875 -15.125 19.640625 -15.046875 19.234375 -15.046875 C 17.265625 -15.046875 15.609375 -15.125 14.953125 -15.28125 L 14.953125 -16.9375 C 14.953125 -17.671875 15.046875 -18.40625 15.046875 -19.15625 C 15.046875 -22.03125 15.375 -24.734375 15.375 -27.609375 L 15.375 -28.765625 L 15.453125 -29.34375 L 15.453125 -29.921875 L 15.9375 -29.921875 L 21.53125 -30.15625 C 22.765625 -30.15625 24 -30.25 25.3125 -30.25 C 26.46875 -30.25 27.703125 -30.328125 28.6875 -30.40625 C 29.921875 -30.578125 30.8125 -30.734375 31.0625 -31.15625 C 31.5625 -33.78125 31.5625 -35.921875 31.640625 -37.640625 C 31.15625 -37.640625 30.65625 -37.71875 30.15625 -37.71875 C 28.359375 -37.71875 26.625 -37.484375 24.828125 -37.484375 L 23.171875 -37.484375 C 22.265625 -37.484375 21.453125 -37.890625 20.546875 -37.890625 L 17.828125 -37.890625 C 17.171875 -37.890625 16.765625 -37.96875 16.1875 -37.96875 C 16.1875 -39.703125 16.109375 -41.75 16.109375 -43.5625 C 16.109375 -44.296875 16.1875 -45.03125 16.1875 -45.78125 C 16.1875 -46.359375 16.265625 -46.84375 16.265625 -47.421875 C 16.265625 -49.0625 16.609375 -50.875 16.609375 -52.515625 L 16.609375 -53.09375 L 17.171875 -53.09375 C 17.921875 -53.09375 18.65625 -53.015625 19.390625 -53.015625 C 20.71875 -53.015625 21.9375 -52.921875 23.265625 -52.921875 C 23.59375 -52.921875 23.921875 -52.84375 24.328125 -52.84375 L 25.484375 -52.84375 C 26.296875 -52.765625 27.046875 -52.765625 27.78125 -52.765625 C 29.09375 -52.765625 30.328125 -52.6875 31.3125 -52.6875 C 32.546875 -52.6875 33.203125 -53.015625 33.203125 -54.328125 C 33.375 -56.375 33.375 -58.1875 33.453125 -60.65625 L 33.453125 -61.96875 L 32.625 -62.046875 C 31.640625 -62.046875 30.65625 -61.96875 29.59375 -61.96875 C 29.015625 -61.96875 28.359375 -61.890625 27.78125 -61.890625 L 26.625 -61.890625 C 26.296875 -61.890625 25.890625 -62.046875 25.5625 -62.046875 L 24.15625 -62.21875 C 23.828125 -62.21875 23.5 -62.296875 23.171875 -62.296875 C 22.03125 -62.296875 20.875 -62.140625 19.5625 -62.140625 L 18.984375 -62.140625 C 18.578125 -62.140625 18.15625 -62.46875 17.75 -62.46875 L 17.265625 -62.46875 C 16.609375 -62.46875 16.03125 -62.21875 15.375 -62.21875 C 14.875 -62.21875 14.546875 -62.546875 14.046875 -62.546875 C 12.15625 -62.546875 8.046875 -62.140625 6.40625 -62.140625 C 6.328125 -62.140625 6.328125 -62.140625 6.25 -62.21875 L 4.609375 -62.375 C 4.109375 -62.375 3.53125 -62.46875 3.046875 -62.46875 L -0.90625 -62.46875 C -1.640625 -62.46875 -2.296875 -62.375 -3.046875 -62.375 L -6.25 -62.375 C -8.46875 -62.140625 -9.125 -63.28125 -9.125 -59.25 L -9.125 -54.90625 C -9.125 -53.828125 -9.453125 -52.84375 -7.890625 -52.84375 C -5.59375 -52.84375 0.984375 -53.171875 2.796875 -53.171875 L 3.046875 -53.171875 C 3.375 -53.171875 3.609375 -53.171875 3.9375 -53.09375 C 3.859375 -52.921875 3.859375 -52.765625 3.859375 -52.59375 L 3.859375 -50.140625 C 3.859375 -47.421875 3.53125 -44.703125 3.53125 -41.921875 C 3.53125 -41.171875 3.453125 -40.4375 3.453125 -39.703125 L 3.453125 -35.671875 C 3.453125 -35.265625 3.375 -35.015625 3.375 -34.59375 L 3.375 -33.453125 C 3.375 -30.734375 3.53125 -28.109375 3.53125 -25.484375 L 3.53125 -23.75 C 3.53125 -22.84375 3.453125 -21.859375 3.28125 -20.953125 L 3.125 -19.890625 C 3.046875 -19.3125 2.953125 -18.828125 2.953125 -18.25 L 2.796875 -14.953125 C 2.796875 -14.21875 2.71875 -13.5625 2.71875 -12.828125 C 2.71875 -12.25 2.625 -11.671875 2.625 -11.171875 L 2.625 -7.8125 C 2.625 -7.3125 2.390625 -6.40625 3.125 -6.40625 C 4.4375 -6.40625 5.671875 -6.578125 6.828125 -6.734375 L 10.265625 -7.0625 C 11.171875 -7.15625 12.15625 -7.234375 13.0625 -7.234375 L 15.203125 -7.234375 C 15.703125 -7.234375 16.1875 -7.15625 16.6875 -7.15625 L 20.71875 -7.15625 C 21.9375 -7.15625 23.171875 -7.234375 24.40625 -7.234375 C 25.15625 -7.234375 25.8125 -7.3125 26.546875 -7.3125 L 27.703125 -7.3125 C 29.171875 -7.390625 30.484375 -7.484375 31.8125 -7.71875 C 31.96875 -7.71875 32.140625 -7.8125 32.296875 -7.8125 Z M 32.296875 -7.8125 "/></g></g></g><g fill="#547036" fill-opacity="1"><g transform="translate(134.255185, 418.684766)"><g><path d="M 20.546875 -64.265625 C 17.828125 -64.265625 15.375 -63.9375 12.734375 -63.6875 L 11.5 -63.53125 C 4.6875 -63.53125 3.203125 -57.03125 3.125 -56.375 L 2.953125 -55.71875 C 2.625 -54.25 2.46875 -52.765625 2.296875 -51.203125 C 2.21875 -49.8125 2.140625 -48.484375 2.140625 -47.09375 C 2.140625 -42.578125 4.03125 -38.953125 7.0625 -36.328125 L 8.625 -35.59375 C 9.375 -35.265625 10.109375 -35.015625 10.84375 -34.765625 L 20.46875 -31.890625 C 21.203125 -31.640625 21.9375 -31.484375 22.59375 -31.234375 L 23.59375 -30.90625 C 26.703125 -30.15625 28.515625 -23.75 28.515625 -20.546875 C 28.515625 -16.6875 26.625 -14.546875 22.03125 -14.546875 C 21.125 -14.546875 19.484375 -14.625 18.328125 -15.375 C 16.9375 -16.03125 16.609375 -17.34375 16.609375 -22.109375 L 16.609375 -22.84375 C 16.6875 -23.828125 16.4375 -24.40625 15.453125 -24.828125 C 13.890625 -25.0625 2.296875 -25.0625 1.5625 -24.828125 C 0.828125 -24.65625 0.984375 -24.078125 0.984375 -22.765625 C 0.984375 -22.1875 0.984375 -21.453125 1.0625 -20.71875 C 1.8125 -14.546875 3.453125 -7.96875 15.046875 -6.828125 L 17.59375 -6.578125 C 18.078125 -6.578125 18.65625 -6.40625 19.15625 -6.40625 L 21.859375 -6.40625 C 34.515625 -6.40625 41.671875 -11.59375 41.671875 -18.90625 L 41.671875 -20.796875 C 41.671875 -28.515625 40.59375 -34.921875 32.375 -37.640625 C 29.015625 -38.296875 25.484375 -39.28125 21.9375 -40.4375 L 16.9375 -42.078125 C 13.71875 -43.3125 14.21875 -47.171875 14.21875 -49.96875 C 14.21875 -53.171875 14.546875 -54.078125 16.1875 -54.90625 C 17.171875 -55.3125 18.484375 -55.5625 19.890625 -55.5625 C 20.375 -55.5625 20.875 -55.5625 21.375 -55.46875 L 22.59375 -55.234375 C 25.15625 -54.578125 25.3125 -49.3125 25.484375 -48.484375 L 25.96875 -42.65625 C 30.8125 -42.328125 35.75 -42.328125 40.765625 -42.8125 C 40.765625 -45.375 40.6875 -47.59375 40.59375 -49.484375 C 40.59375 -50.625 40.4375 -51.859375 40.265625 -52.921875 L 40.109375 -53.921875 C 40.109375 -56.296875 38.21875 -60 36.65625 -61.140625 L 36.25 -61.390625 C 35.015625 -62.140625 33.046875 -63.125 30.578125 -63.359375 L 27.453125 -63.78125 C 25.3125 -64.265625 23.265625 -64.265625 21.125 -64.265625 Z M 20.546875 -64.265625 "/></g></g></g><g fill="#547036" fill-opacity="1"><g transform="translate(176.584386, 418.684766)"><g><path d="M 23.171875 -56.625 C 19.484375 -56.625 16.109375 -56.375 13.234375 -55.640625 L 11.59375 -55.140625 C 8.296875 -53.921875 5.921875 -52.59375 4.28125 -48.40625 C 4.28125 -48.328125 4.28125 -48.328125 4.1875 -48.328125 L 3.78125 -46.359375 L 3.28125 -43.234375 L 2.953125 -40.921875 C 2.953125 -40.03125 2.71875 -39.125 2.71875 -38.21875 L 2.71875 -37.15625 C 2.71875 -35.828125 2.546875 -34.59375 2.546875 -33.28125 L 2.546875 -26.953125 C 2.546875 -25.8125 2.625 -24.734375 2.625 -23.59375 C 2.625 -23.015625 2.71875 -22.4375 2.71875 -21.859375 L 2.875 -18.40625 C 2.875 -17.421875 3.046875 -16.4375 3.046875 -15.453125 C 3.046875 -13.96875 3.375 -12.5 3.609375 -11.09375 L 4.4375 -8.140625 C 4.765625 -6.984375 5.421875 -5.671875 6 -4.6875 L 6.828125 -3.453125 L 8.046875 -2.046875 L 8.390625 -1.71875 C 9.125 -0.984375 10.359375 -0.328125 11.34375 0.078125 L 13.3125 0.90625 C 16.109375 1.96875 19.640625 2.046875 22.515625 2.046875 C 27.609375 2.046875 32.21875 1.484375 35.921875 -1.5625 L 36.984375 -2.546875 C 37.8125 -3.53125 38.375 -4.609375 38.875 -5.75 L 39.203125 -6.65625 C 40.03125 -9.453125 39.9375 -11.75 39.9375 -13.890625 L 39.9375 -14.375 L 39.78125 -17.828125 C 39.53125 -20.296875 30.15625 -20.296875 30.328125 -18.734375 C 30.328125 -12.328125 30.15625 -6.40625 22.4375 -6.40625 C 20.953125 -6.40625 19.5625 -6.984375 18.578125 -7.96875 L 17.828125 -8.796875 C 16.609375 -10.609375 16.1875 -12.984375 15.9375 -15.609375 L 15.609375 -19.0625 C 15.609375 -23.09375 15.703125 -27.703125 15.28125 -31.390625 C 15.28125 -31.96875 15.203125 -32.546875 15.203125 -33.125 C 15.203125 -33.53125 15.125 -33.859375 15.125 -34.265625 L 15.125 -36.484375 C 15.125 -38.21875 15.28125 -40.109375 15.703125 -41.75 C 16.109375 -43.8125 16.609375 -45.125 17.828125 -46.359375 L 18.25 -46.6875 C 19.234375 -47.25 20.296875 -47.5 21.453125 -47.5 L 23.921875 -47.421875 C 28.1875 -47.421875 28.1875 -44.546875 28.109375 -41.921875 C 28.03125 -40.109375 27.703125 -39.03125 28.59375 -35.34375 C 28.765625 -34.4375 40.921875 -32.546875 40.921875 -36.40625 L 40.84375 -39.703125 C 40.84375 -42.078125 40.4375 -44.46875 39.859375 -46.6875 L 39.53125 -49.96875 L 38.625 -51.609375 C 36.15625 -54.65625 32.375 -56.21875 27.859375 -56.21875 C 26.796875 -56.46875 25.640625 -56.625 24.328125 -56.625 Z M 23.171875 -56.625 "/></g></g></g><g fill="#547036" fill-opacity="1"><g transform="translate(218.667006, 418.684766)"><g><path d="M 30.734375 -62.296875 C 30.40625 -63.203125 31.15625 -58.109375 31.15625 -54.40625 L 31.15625 -52.6875 C 31.15625 -52.109375 31.234375 -51.359375 31.234375 -50.703125 L 31.234375 -48.65625 C 31.234375 -47.671875 31.3125 -46.765625 31.3125 -45.78125 C 31.3125 -45.03125 31.390625 -44.296875 31.390625 -43.5625 C 31.390625 -42.328125 31.484375 -41.015625 31.484375 -39.78125 L 31.484375 -38.21875 C 31.484375 -37.234375 31.5625 -36.25 31.5625 -35.265625 L 31.5625 -33.125 C 31.5625 -31.15625 31.71875 -29.265625 31.71875 -27.375 L 31.96875 -21.9375 C 31.96875 -21.53125 32.046875 -21.125 32.046875 -20.71875 L 32.046875 -18.828125 C 32.046875 -18 32.140625 -17.171875 32.140625 -16.359375 L 32.140625 -14.625 C 32.140625 -13.96875 32.140625 -13.3125 32.046875 -12.65625 L 31.8125 -11.5 L 31.484375 -9.9375 L 31.3125 -9.53125 C 30.8125 -7.71875 29.421875 -6.40625 27.28125 -6 L 25.96875 -5.828125 C 25.484375 -5.75 24.984375 -5.75 24.40625 -5.75 C 20.46875 -5.75 17.34375 -5.015625 17.34375 -14.625 L 17.34375 -27.125 C 17.34375 -29.34375 17.421875 -31.640625 17.421875 -33.9375 C 17.421875 -34.59375 17.5 -35.34375 17.5 -36 C 17.5 -37.390625 17.59375 -38.953125 17.671875 -40.359375 L 17.921875 -48.578125 L 3.28125 -49.390625 C 3.203125 -48.578125 3.28125 -45.859375 3.203125 -45.03125 L 3.203125 -43.8125 C 3.203125 -43.390625 3.28125 -42.984375 3.28125 -42.578125 L 3.28125 -39.125 C 3.375 -35.59375 3.53125 -32.953125 3.53125 -29.828125 C 3.53125 -29.015625 3.609375 -28.359375 3.609375 -27.609375 C 3.609375 -24.828125 3.78125 -22.765625 3.78125 -20.625 L 3.78125 -18.328125 C 3.78125 -17.75 3.859375 -17.171875 3.859375 -16.6875 L 3.859375 -11.671875 C 3.859375 -5.5 4.609375 -0.328125 9.9375 1.640625 L 11.671875 2.140625 C 12.40625 2.296875 13.234375 2.46875 14.140625 2.546875 L 16.109375 2.71875 C 17.671875 2.875 19.234375 3.046875 20.796875 3.046875 L 22.59375 3.046875 C 29.421875 3.046875 36.65625 2.140625 39.609375 -5.171875 L 40.109375 -6.65625 C 40.4375 -7.71875 40.6875 -9.28125 40.84375 -10.6875 L 41.015625 -14.140625 C 41.015625 -15.125 41.09375 -16.1875 41.09375 -17.265625 L 41.09375 -25.0625 C 41.09375 -25.484375 41.015625 -25.96875 41.015625 -26.375 L 41.015625 -31.890625 C 41.015625 -32.625 40.921875 -33.28125 40.921875 -34.03125 L 40.921875 -38.375 C 40.921875 -39.859375 40.84375 -41.265625 40.84375 -42.65625 C 40.84375 -43.140625 40.765625 -43.640625 40.765625 -44.140625 L 40.765625 -45.53125 C 40.765625 -46.265625 40.6875 -46.921875 40.6875 -47.671875 C 40.6875 -48.8125 40.59375 -49.96875 40.59375 -51.125 C 40.59375 -54.984375 40.1875 -59.171875 40.1875 -62.703125 C 40.1875 -62.875 30.734375 -62.140625 30.734375 -62.296875 Z M 30.734375 -62.296875 "/></g></g></g><g fill="#547036" fill-opacity="1"><g transform="translate(261.98251, 418.684766)"><g><path d="M 24.25 -1.890625 C 28.359375 -1.890625 32.703125 -2.21875 35.34375 -4.84375 L 36.328125 -6 C 37.5625 -7.640625 38.953125 -9.609375 38.953125 -11.59375 C 38.953125 -11.828125 38.953125 -12.078125 38.875 -12.328125 C 38.703125 -12.828125 39.03125 -13.71875 39.03125 -14.46875 L 39.03125 -16.4375 C 39.03125 -16.84375 38.953125 -17.34375 38.953125 -17.75 C 38.953125 -18.40625 38.875 -19.0625 38.875 -19.71875 L 38.875 -20.375 C 38.875 -20.796875 38.796875 -21.28125 38.796875 -21.703125 L 38.625 -23.671875 C 38.625 -24.65625 38.46875 -25.890625 38.296875 -26.796875 L 38.140625 -27.9375 C 38.140625 -29.421875 36.25 -30.734375 34.84375 -31.5625 L 33.609375 -32.21875 L 33.046875 -32.625 C 33.78125 -33.203125 34.515625 -33.78125 35.015625 -34.515625 L 35.34375 -35.09375 C 36.40625 -37.71875 36.25 -41.5 36.25 -43.484375 L 36.25 -44.625 C 36.25 -45.03125 36.328125 -45.375 36.328125 -45.78125 L 36.328125 -48.078125 C 36.328125 -52.265625 36.40625 -55.71875 33.203125 -58.109375 L 32.21875 -58.84375 C 30.328125 -59.921875 28.59375 -60.328125 25.96875 -60.328125 L 20.21875 -60.734375 L 18.15625 -60.734375 C 16.765625 -60.734375 15.125 -60.65625 13.640625 -60.65625 C 12.984375 -60.65625 12.40625 -60.578125 11.75 -60.578125 C 9.609375 -60.40625 7.15625 -60.328125 5.015625 -60.328125 L 3.609375 -60.328125 C 2.953125 -60.328125 2.21875 -60.25 1.5625 -60.25 C 1.15625 -60.328125 0.65625 -60.40625 0.328125 -60.40625 C -0.25 -60.40625 -0.828125 -60.25 -1.15625 -59.921875 C -1.15625 -58.1875 -1.15625 -54.984375 -1.234375 -52.921875 C -0.078125 -52.515625 2.140625 -53.34375 3.703125 -53.015625 C 4.109375 -52.921875 4.4375 -52.765625 4.6875 -52.515625 C 4.6875 -50.375 4.4375 -48.328125 4.4375 -46.1875 L 4.4375 -43.640625 C 4.4375 -42.984375 4.359375 -42.40625 4.359375 -41.75 C 4.359375 -39.609375 4.359375 -37.484375 4.28125 -35.34375 C 4.28125 -34.03125 4.1875 -32.703125 4.1875 -31.390625 C 4.1875 -30.484375 4.109375 -29.75 4.109375 -28.84375 C 4.109375 -27.046875 4.1875 -25.15625 4.1875 -23.34375 C 4.1875 -20.546875 3.859375 -17.75 3.859375 -14.953125 L 3.859375 -13.0625 L 3.609375 -2.546875 C 3.609375 -2.546875 12.734375 -1.640625 15.9375 -1.71875 C 16.265625 -1.96875 16.84375 -1.8125 17.265625 -1.8125 L 19.15625 -1.8125 C 19.96875 -1.8125 20.875 -1.890625 21.703125 -1.890625 Z M 20.046875 -53.671875 L 20.875 -53.59375 C 21.609375 -53.59375 22.359375 -53.34375 23.09375 -53.34375 L 24.25 -53.171875 C 24.25 -53.09375 24.328125 -53.015625 24.484375 -53.015625 L 25.0625 -52.59375 C 25.640625 -52.1875 26.21875 -51.78125 26.546875 -51.28125 L 27.046875 -50.46875 C 27.609375 -49.0625 27.703125 -47.671875 27.703125 -46.265625 L 27.703125 -45.609375 C 27.703125 -45.28125 27.609375 -45.03125 27.609375 -44.703125 L 27.609375 -44.375 C 27.609375 -43.96875 27.53125 -43.5625 27.53125 -43.234375 C 27.53125 -41.09375 27.125 -38.953125 26.46875 -36.90625 L 25.96875 -35.828125 C 24.984375 -35.171875 23.015625 -35.09375 21.9375 -35.09375 L 20.953125 -35.09375 C 19.96875 -35.09375 18.734375 -35.09375 17.828125 -35.34375 L 16.84375 -35.5 C 16.84375 -36.40625 16.9375 -37.0625 16.9375 -37.890625 L 16.9375 -42.40625 C 16.9375 -43.8125 16.84375 -45.125 16.84375 -46.359375 L 16.84375 -47.5 C 16.84375 -48.65625 16.84375 -49.8125 16.9375 -50.953125 L 17.171875 -53.25 C 18.15625 -53.25 19.15625 -53.671875 20.046875 -53.671875 Z M 16.609375 -27.53125 C 17.421875 -27.78125 18.25 -27.859375 19.15625 -28.03125 L 19.96875 -28.109375 C 20.375 -28.1875 20.796875 -28.265625 21.203125 -28.265625 L 22.03125 -28.265625 C 22.765625 -28.265625 23.421875 -28.359375 24.15625 -28.359375 C 25.71875 -28.359375 27.609375 -27.453125 27.9375 -25.71875 L 27.9375 -25.0625 C 27.9375 -23.5 28.4375 -21.9375 28.4375 -20.296875 L 28.59375 -18.578125 L 28.59375 -17.75 C 28.59375 -17.015625 28.765625 -16.1875 28.765625 -15.453125 L 28.765625 -14.046875 C 28.765625 -12.40625 28.4375 -11.09375 26.953125 -10.109375 L 26.703125 -9.9375 C 25.3125 -9.203125 22.84375 -9.203125 22.109375 -9.203125 L 19.8125 -9.203125 C 18.828125 -9.203125 17.5 -9.375 16.515625 -9.375 C 16.4375 -10.4375 16.4375 -11.5 16.4375 -12.578125 L 16.4375 -17.59375 C 16.4375 -18.25 16.515625 -18.90625 16.515625 -19.5625 L 16.515625 -22.03125 C 16.515625 -22.265625 16.609375 -22.59375 16.609375 -22.9375 Z M 16.609375 -27.53125 "/></g></g></g><g fill="#547036" fill-opacity="1"><g transform="translate(301.763746, 418.684766)"><g><path d="M 2.546875 -53.421875 C 2.953125 -53.015625 2.796875 -50.546875 2.796875 -49.484375 C 2.796875 -48.484375 2.875 -47.5 2.875 -46.515625 L 2.875 -45.28125 C 2.875 -44.296875 2.796875 -43.234375 2.796875 -42.25 L 2.796875 -38.46875 C 2.796875 -38.046875 2.71875 -37.640625 2.71875 -37.234375 C 2.71875 -31.15625 2.390625 -25.0625 2.390625 -18.984375 C 2.390625 -18.328125 2.296875 -17.59375 2.296875 -16.9375 L 2.296875 -15.53125 C 2.296875 -14.140625 2.390625 -12.828125 2.390625 -11.421875 L 2.390625 -10.03125 C 2.390625 -8.21875 2.546875 -6.15625 2.546875 -4.4375 C 2.546875 -3.703125 2.71875 -3.53125 3.453125 -3.53125 C 6.90625 -3.78125 10.265625 -3.78125 15.53125 -4.6875 C 15.53125 -4.84375 15.453125 -5.015625 15.453125 -5.171875 L 15.28125 -7.0625 C 15.203125 -7.71875 15.203125 -8.46875 15.203125 -9.125 C 15.203125 -11.75 14.953125 -13.8125 14.953125 -16.265625 L 14.953125 -24.90625 C 14.953125 -25.8125 14.875 -26.625 14.875 -27.609375 C 16.4375 -27.9375 18.25 -28.109375 19.71875 -28.1875 L 20.875 -28.1875 C 21.609375 -28.1875 22.515625 -28.109375 23.171875 -27.859375 C 25.0625 -27.28125 27.375 -25.5625 27.375 -23.75 L 27.375 -21.859375 C 27.375 -21.046875 27.453125 -20.21875 27.453125 -19.3125 L 27.453125 -18 C 27.453125 -17.34375 27.53125 -16.609375 27.53125 -15.859375 L 27.53125 -13.5625 C 27.53125 -7.5625 27.9375 -1.484375 27.9375 4.515625 L 27.9375 6.078125 C 27.9375 6.828125 28.03125 7.5625 28.03125 8.296875 C 28.03125 10.359375 28.109375 11.921875 28.109375 13.8125 C 28.109375 14.046875 28.1875 14.296875 28.1875 14.46875 L 28.1875 15.125 C 28.1875 15.125 40.03125 16.03125 39.9375 14.71875 C 39.9375 14.375 39.859375 13.890625 39.859375 13.484375 L 39.859375 12 C 39.859375 10.359375 39.78125 8.71875 39.703125 6.90625 L 39.53125 3.125 C 39.53125 2.296875 39.453125 1.484375 39.453125 0.65625 L 39.453125 -0.171875 C 39.453125 -1.5625 39.28125 -2.953125 39.28125 -4.359375 C 39.28125 -4.9375 39.203125 -5.5 39.203125 -6.078125 C 39.203125 -6.90625 39.125 -7.8125 39.125 -8.625 L 39.125 -9.453125 C 39.125 -12.5 38.796875 -15.53125 38.796875 -18.40625 C 38.796875 -28.515625 37.0625 -30.15625 27.703125 -32.796875 C 30.65625 -33.28125 35.828125 -33.859375 36.65625 -35.921875 C 36.90625 -36.578125 37.0625 -37.3125 37.3125 -38.046875 L 37.640625 -39.203125 L 38.140625 -41.171875 L 38.375 -42.484375 C 38.625 -43.8125 38.703125 -45.203125 38.625 -46.515625 C 38.625 -46.921875 38.546875 -47.25 38.546875 -47.671875 L 38.375 -49.5625 L 38.140625 -51.53125 C 37.390625 -55.5625 36.734375 -55.8125 35.828125 -56.46875 C 34.4375 -57.359375 31.234375 -59.5 29.5 -60.484375 L 28.109375 -61.3125 C 25.484375 -62.546875 25.3125 -62.140625 22.59375 -62.140625 C 21.375 -62.140625 20.046875 -62.21875 18.734375 -62.296875 L 14.796875 -62.546875 C 13.484375 -62.625 12.25 -62.703125 11.015625 -62.703125 C 8.390625 -62.703125 4.9375 -62.046875 1.96875 -62.046875 L 0.90625 -62.046875 C 0.328125 -62.046875 -0.171875 -62.140625 -0.65625 -62.140625 C -1.390625 -62.140625 -1.96875 -62.046875 -2.71875 -62.046875 C -2.625 -59.421875 -3.375 -53.34375 -0.90625 -53.34375 L -0.328125 -53.34375 C 0.578125 -53.34375 1.5625 -53.421875 2.546875 -53.421875 Z M 14.796875 -34.1875 C 14.296875 -36.15625 14.21875 -38.546875 14.21875 -40.6875 L 14.21875 -41.5 C 14.21875 -42.484375 14.140625 -43.390625 14.140625 -44.296875 L 14.140625 -45.375 C 14.140625 -46.265625 14.296875 -47.171875 14.296875 -48.078125 L 14.296875 -49.234375 C 14.296875 -49.71875 14.46875 -50.375 14.46875 -50.875 C 14.46875 -51.9375 14.625 -53.25 14.625 -54.40625 C 15.125 -54.578125 15.609375 -54.65625 16.1875 -54.65625 C 16.609375 -54.65625 17.171875 -54.578125 18.078125 -54.484375 C 18.828125 -54.484375 19.5625 -54.328125 20.296875 -54.15625 C 21.046875 -54 22.03125 -53.671875 22.59375 -53.34375 L 23.34375 -52.84375 C 24.15625 -52.265625 24.828125 -51.28125 24.828125 -50.21875 C 24.65625 -49.234375 24.65625 -48.15625 24.65625 -47.09375 L 24.65625 -38.375 C 24.65625 -35.265625 21.203125 -34.515625 19.96875 -34.4375 C 19.8125 -34.4375 19.640625 -34.515625 19.5625 -34.515625 L 18.734375 -34.515625 C 18.484375 -34.515625 18.25 -34.4375 18 -34.4375 L 17.171875 -34.4375 C 16.609375 -34.359375 15.703125 -34.1875 15.203125 -34.1875 Z M 14.796875 -34.1875 "/></g></g></g><g fill="#547036" fill-opacity="1"><g transform="translate(343.188842, 418.684766)"><g><path d="M 39.859375 -2.140625 L 39.703125 -3.125 L 39.28125 -5.828125 C 39.125 -6.734375 39.125 -7.71875 39.125 -8.625 C 39.125 -9.703125 39.375 -10.6875 39.375 -11.75 C 39.375 -12 39.28125 -12.328125 39.203125 -12.578125 L 39.03125 -13.5625 C 38.625 -14.953125 38.375 -16.4375 38.140625 -17.828125 L 37.8125 -19.234375 C 37.640625 -19.640625 37.5625 -20.140625 37.390625 -20.625 L 36.40625 -23.421875 L 36.15625 -24.328125 L 35.5 -27.125 L 35.015625 -30.40625 C 34.59375 -33.046875 34.59375 -36.40625 34.59375 -38.46875 L 34.4375 -40.4375 C 34.4375 -41.171875 34.1875 -42.078125 34.109375 -42.734375 L 33.703125 -45.125 L 33.375 -46.515625 L 33.046875 -48 L 32.546875 -50.296875 L 31.890625 -53.171875 C 31.890625 -53.34375 31.8125 -53.5 31.8125 -53.671875 C 32.140625 -54 34.109375 -53.921875 35.34375 -53.921875 C 37.0625 -53.921875 38.796875 -54.078125 40.515625 -54.15625 L 43.640625 -54.484375 C 46.84375 -55.234375 46.1875 -62.21875 46.1875 -64.4375 L 41.5 -64.1875 C 40.359375 -64.1875 39.125 -64.03125 37.96875 -64.03125 C 36.734375 -64.03125 35.5 -63.9375 34.4375 -63.9375 C 32.796875 -63.9375 31.234375 -63.859375 30.328125 -63.859375 C 29.671875 -63.859375 29.09375 -63.859375 28.765625 -63.9375 L 27.28125 -63.9375 C 25.890625 -63.9375 24.328125 -63.6875 23.015625 -63.609375 L 18.734375 -63.125 C 17.34375 -62.953125 15.9375 -62.796875 14.46875 -62.796875 L 12.078125 -62.796875 C 11.59375 -62.796875 11.171875 -62.875 10.6875 -62.875 L 8.390625 -62.875 C 5.5 -62.875 1.96875 -62.546875 -0.40625 -62.546875 C -1.3125 -62.546875 -2.21875 -62.546875 -3.046875 -62.703125 C -3.859375 -62.703125 -3.9375 -61.96875 -3.9375 -61.140625 L -4.4375 -54.984375 C -4.4375 -53.34375 -3.703125 -53.671875 -2.46875 -53.671875 C -1.15625 -53.671875 0.078125 -53.59375 1.390625 -53.59375 C 4.1875 -53.59375 7.0625 -54.078125 9.609375 -54.078125 L 10.765625 -54.078125 C 11.5 -54.078125 11.921875 -53.921875 11.921875 -53.09375 C 11.921875 -52.03125 11.171875 -49.484375 10.84375 -48.578125 L 10.4375 -47.171875 C 10.265625 -46.6875 10.265625 -46.265625 10.109375 -45.78125 L 9.375 -42.984375 C 9.046875 -42.078125 8.875 -41.09375 8.546875 -40.1875 L 7.640625 -36.90625 L 7.15625 -34.109375 L 6.90625 -32.625 L 6.734375 -31.234375 L 6.25 -28.4375 L 5.421875 -24.734375 L 5.09375 -23.421875 L 4.84375 -21.9375 L 4.109375 -18.078125 L 3.9375 -17.171875 C 3.78125 -16.03125 3.453125 -14.953125 3.28125 -13.8125 L 3.125 -12.828125 L 2.46875 -8.46875 L 1.890625 -5.671875 C 1.71875 -4.765625 1.484375 -3.703125 1.484375 -2.796875 C 1.484375 -2.046875 1.640625 -1.15625 2.046875 -0.5 L 6.65625 -0.25 L 9.046875 -0.078125 C 12.734375 -0.078125 12.5 -4.4375 12.40625 -4.4375 L 12.65625 -7.390625 C 12.828125 -8.796875 12.5 -10.109375 14.140625 -10.265625 L 16.03125 -10.4375 C 17.59375 -10.6875 19.234375 -10.609375 20.796875 -10.609375 C 21.453125 -10.609375 22.03125 -10.6875 22.6875 -10.6875 C 23.171875 -10.6875 23.59375 -10.765625 24.078125 -10.765625 L 25.484375 -10.765625 C 25.640625 -10.765625 25.8125 -10.84375 25.96875 -10.84375 L 26.46875 -10.84375 C 26.796875 -9.609375 26.953125 -8.390625 26.953125 -7.15625 L 26.953125 -5.828125 C 26.953125 -3.703125 27.703125 -2.296875 27.9375 -0.578125 C 40.109375 -1.71875 40.109375 -0.984375 39.859375 -2.140625 Z M 25.5625 -17.671875 C 24.484375 -17.671875 23.421875 -17.59375 22.359375 -17.59375 C 21.703125 -17.59375 21.046875 -17.5 20.375 -17.5 L 19.5625 -17.5 C 17.171875 -17.5 14.796875 -17.34375 12.40625 -17.34375 L 11.171875 -17.34375 L 11.75 -20.21875 L 12.25 -22.59375 L 12.65625 -24.65625 L 13.0625 -26.625 L 13.3125 -27.78125 L 14.140625 -32.546875 L 14.296875 -33.703125 C 14.296875 -35.921875 14.953125 -38.140625 15.203125 -38.875 L 15.453125 -39.609375 C 15.53125 -39.9375 15.78125 -40.515625 15.78125 -40.84375 L 16.03125 -41.59375 L 16.359375 -42.734375 L 16.84375 -44.625 L 17.421875 -46.515625 L 17.59375 -47.25 L 17.921875 -48.40625 L 18.15625 -49.234375 L 19.15625 -52.359375 C 19.8125 -51.703125 20.140625 -50.875 20.375 -49.96875 L 20.546875 -48.90625 C 20.546875 -47.34375 21.046875 -45.703125 21.046875 -44.140625 C 21.046875 -42.734375 21.453125 -41.34375 21.453125 -40.109375 L 21.609375 -38.546875 C 21.609375 -37.890625 21.78125 -37.234375 21.9375 -36.578125 L 22.515625 -32.953125 L 22.9375 -30.984375 L 23.171875 -29.828125 C 23.265625 -29.59375 23.171875 -29.265625 23.265625 -29.015625 L 23.75 -26.703125 C 23.828125 -26.46875 23.75 -26.140625 23.828125 -25.890625 L 24.40625 -23.265625 L 24.578125 -22.4375 C 24.65625 -22.1875 24.578125 -21.9375 24.65625 -21.703125 L 25.390625 -18.484375 Z M 25.5625 -17.671875 "/></g></g></g><g fill="#547036" fill-opacity="1"><g transform="translate(384.367342, 418.684766)"><g/></g></g><g fill="#547036" fill-opacity="1"><g transform="translate(408.121015, 418.684766)"><g><path d="M 26.546875 -60.25 C 14.21875 -60.078125 5.265625 -57.359375 4.109375 -52.109375 L 3.28125 -49.71875 C 3.046875 -48.90625 2.796875 -48.25 2.71875 -47.671875 L 2.46875 -45.203125 C 2.390625 -43.890625 2.140625 -42.40625 2.140625 -41.015625 C 1.96875 -38.046875 1.8125 -34.765625 1.71875 -31.15625 L 1.71875 -29.34375 C 1.71875 -22.03125 1.8125 -15.203125 6 -9.609375 C 9.859375 -4.765625 14.71875 -3.703125 24.15625 -3.703125 C 37.640625 -3.703125 43.5625 -8.625 43.5625 -22.4375 C 43.640625 -25.71875 43.640625 -28.9375 43.640625 -31.96875 L 43.640625 -34.109375 C 43.640625 -44.796875 43.484375 -54.578125 35.59375 -58.6875 C 32.703125 -59.671875 29.75 -60.25 26.546875 -60.25 Z M 24 -50.046875 C 30.25 -50.046875 33.046875 -50.796875 33.046875 -37.96875 C 33.203125 -33.859375 33.28125 -30.078125 33.375 -26.625 L 33.375 -25.8125 C 33.375 -18 32.875 -13.3125 25.890625 -13.3125 L 24.984375 -13.3125 C 17.015625 -13.71875 17.265625 -15.78125 17.265625 -25.234375 C 17.015625 -29.34375 17.015625 -33.046875 17.015625 -36.078125 L 17.015625 -36.8125 C 17.015625 -44.625 16.4375 -49.5625 22.84375 -50.046875 Z M 24 -50.046875 "/></g></g></g><g fill="#547036" fill-opacity="1"><g transform="translate(454.313245, 418.684766)"><g/></g></g><g fill="#547036" fill-opacity="1"><g transform="translate(478.066919, 418.684766)"><g><path d="M 1.71875 -47.75 C 1.15625 -46.6875 1.0625 -44.296875 0.90625 -42.65625 L 0.90625 -37.8125 C 2.296875 -37.8125 4.9375 -37.96875 7.390625 -38.140625 C 8.046875 -38.140625 8.625 -38.296875 9.203125 -38.296875 C 10.359375 -38.296875 11.75 -38.46875 12.578125 -37.96875 C 12.578125 -37.8125 12.5 -37.640625 12.5 -37.484375 L 12.15625 -35.921875 C 12.078125 -35.421875 12 -34.84375 11.828125 -34.359375 L 11.015625 -31.0625 L 9.203125 -24.484375 L 8.46875 -21.453125 L 7.3125 -15.859375 L 6.90625 -14.046875 C 6.578125 -12.984375 6.40625 -11.75 6.25 -10.609375 L 5.5 -7.234375 L 4.765625 -3.53125 L 4.03125 0 C 3.859375 1.15625 3.53125 2.296875 3.28125 3.375 L 3.046875 4.765625 C 2.625 6.5 2.046875 8.296875 2.046875 9.78125 L 2.046875 10.265625 C 2.046875 11.671875 8.046875 12.328125 9.9375 12.328125 C 12.578125 12.328125 13.484375 11.265625 14.046875 6.90625 L 14.375 5.015625 C 14.46875 4.359375 14.71875 3.703125 14.796875 3.125 L 15.125 1.390625 C 15.375 0.328125 15.609375 -0.578125 15.859375 -1.234375 C 18.40625 -1.890625 21.609375 -1.5625 24.15625 -1.5625 L 28.84375 -1.5625 C 29.265625 -1.5625 29.59375 -1.640625 29.921875 -1.640625 C 30.25 -1.640625 30.578125 -1.71875 30.90625 -1.71875 C 31.3125 -0.25 32.140625 1.890625 32.140625 3.203125 L 32.625 5.015625 L 33.203125 6.734375 L 33.78125 8.390625 C 33.9375 8.71875 33.9375 9.046875 34.109375 9.375 L 34.6875 10.84375 C 34.84375 11.34375 35.09375 11.828125 35.34375 12.25 L 36.8125 11.828125 L 37.8125 11.59375 C 38.21875 11.59375 38.546875 11.671875 38.875 11.671875 C 41.5 11.171875 45.703125 10.765625 46.765625 9.703125 C 46.59375 9.28125 46.265625 8.71875 46.1875 8.296875 L 45.609375 5.921875 L 45.375 4.84375 C 45.375 4.6875 45.28125 4.515625 45.28125 4.359375 C 45.28125 3.859375 45.375 3.28125 45.375 2.796875 L 45.203125 2.046875 C 45.125 1.640625 44.953125 1.234375 44.796875 0.828125 L 43.390625 -3.125 C 43.234375 -3.703125 43.0625 -4.1875 42.8125 -4.765625 L 42.15625 -6.5 C 41.671875 -7.71875 41.34375 -8.875 40.84375 -10.1875 L 40.265625 -12 L 39.203125 -15.203125 L 38.875 -16.265625 C 38.625 -17.09375 38.375 -18 38.21875 -18.90625 L 37.640625 -22.109375 L 36.734375 -26.046875 L 35.921875 -29.421875 C 35.75 -30.15625 35.5 -30.90625 35.265625 -31.640625 L 34.765625 -33.28125 L 34.265625 -34.84375 L 33.375 -38.140625 L 32.796875 -40.265625 C 33.125 -40.265625 33.53125 -40.359375 33.859375 -40.359375 L 35.5 -40.359375 C 36.078125 -40.359375 36.578125 -40.4375 37.15625 -40.4375 C 37.71875 -40.4375 38.296875 -40.4375 38.875 -40.515625 L 40.515625 -40.765625 C 40.6875 -40.765625 40.921875 -40.765625 41.09375 -40.84375 C 41.75 -41.171875 41.671875 -41.921875 41.671875 -42.734375 C 41.671875 -44.21875 41.828125 -49.640625 40.84375 -49.640625 C 37.71875 -49.640625 34.109375 -49.3125 31.71875 -49.3125 L 30.328125 -49.3125 C 27.453125 -49.3125 24.828125 -48.734375 22.6875 -48.734375 L 18.328125 -48.484375 C 17.921875 -48.40625 17.59375 -48.40625 17.171875 -48.40625 L 13.8125 -48.40625 C 13.234375 -48.40625 12.734375 -48.328125 12.15625 -48.328125 L 9.375 -48.078125 C 7.15625 -48.078125 5.015625 -47.75 2.796875 -47.75 Z M 29.671875 -8.71875 L 19.890625 -8.71875 C 18.828125 -8.71875 17.921875 -8.796875 16.9375 -8.796875 L 15.703125 -8.796875 L 16.515625 -13.234375 C 16.515625 -13.640625 16.765625 -14.21875 16.84375 -14.625 L 17.34375 -17.015625 L 18.25 -20.796875 C 18.25 -22.6875 19.0625 -24.734375 19.484375 -26.46875 L 20.296875 -29.671875 L 21.28125 -33.375 L 21.53125 -34.265625 C 21.78125 -35.09375 22.03125 -35.921875 22.1875 -36.734375 C 23.09375 -35.828125 23.5 -33.375 23.671875 -32.375 L 23.828125 -31.390625 C 23.921875 -30.90625 24.15625 -30.484375 24.25 -30 L 24.578125 -28.515625 L 24.90625 -27.125 L 25.15625 -26.140625 C 25.234375 -25.640625 25.484375 -25.234375 25.5625 -24.734375 L 26.21875 -21.9375 C 26.21875 -21.28125 26.625 -20.71875 26.703125 -20.046875 L 27.375 -17.171875 C 27.453125 -16.6875 27.703125 -16.265625 27.78125 -15.78125 L 28.03125 -14.875 C 28.1875 -14.046875 28.359375 -13.3125 28.59375 -12.5 L 29.265625 -10.109375 C 29.34375 -9.703125 29.421875 -9.125 29.671875 -8.71875 Z M 29.671875 -8.71875 "/></g></g></g><g fill="#547036" fill-opacity="1"><g transform="translate(522.861903, 418.684766)"><g><path d="M 27.9375 -54.484375 C 27.9375 -54.328125 27.78125 -53.34375 27.78125 -53.09375 C 27.78125 -51.359375 27.9375 -49.890625 27.9375 -48.578125 L 27.9375 -46.921875 C 27.9375 -45.9375 28.109375 -45.03125 28.109375 -44.046875 L 28.109375 -40.59375 C 28.109375 -39.9375 28.1875 -39.375 28.1875 -38.703125 L 28.1875 -37.234375 C 28.1875 -36.578125 28.265625 -36 28.265625 -35.34375 L 28.265625 -33.375 C 28.265625 -32.21875 28.359375 -31.15625 28.359375 -30 L 28.359375 -28.515625 C 28.359375 -27.859375 28.4375 -27.28125 28.4375 -26.625 L 28.515625 -24.578125 L 28.359375 -24.90625 L 27.203125 -27.125 L 24.984375 -31.71875 L 24.484375 -32.796875 L 23.421875 -34.921875 L 22.9375 -36.078125 L 21.453125 -39.375 L 20.71875 -40.921875 C 20.46875 -41.421875 20.296875 -41.921875 20.140625 -42.40625 L 19.484375 -44.21875 L 18.25 -47.921875 L 17.421875 -50.21875 L 16.1875 -53.25 C 15.125 -55.96875 13.5625 -61.5625 12.40625 -61.5625 L 12.078125 -61.5625 C 9.609375 -61.5625 8.21875 -61.640625 6.734375 -61.640625 C 3.375 -61.640625 0.40625 -61.46875 -2.625 -61.3125 C -4.4375 -61.3125 -6.25 -61.890625 -6.25 -59.171875 C -6.25 -56.375 -6.5 -52.265625 -3.9375 -52.265625 C -2.796875 -52.265625 -1.71875 -52.359375 -0.578125 -52.359375 L 1.8125 -52.359375 L 1.640625 -51.9375 C 1.71875 -51.9375 1.890625 -49.140625 1.890625 -48.90625 C 1.890625 -47.828125 1.96875 -46.765625 1.96875 -45.703125 C 1.96875 -45.03125 2.046875 -44.46875 2.046875 -43.8125 C 2.046875 -42.65625 2.140625 -41.5 2.140625 -40.359375 L 2.140625 -38.375 C 2.140625 -37.390625 2.21875 -36.328125 2.21875 -35.34375 L 2.21875 -30.15625 C 2.21875 -29.671875 2.296875 -29.09375 2.296875 -28.59375 L 2.296875 -20.796875 C 2.296875 -20.140625 2.390625 -19.390625 2.390625 -18.734375 L 2.390625 -11.671875 C 2.390625 -11.171875 2.46875 -10.609375 2.46875 -10.109375 L 2.46875 -6.734375 C 2.46875 -6.078125 2.546875 -5.5 2.546875 -4.84375 L 2.546875 -1.15625 C 2.546875 0.828125 3.125 1.3125 5.171875 1.3125 C 7.484375 1.0625 9.78125 0.828125 12 0.828125 C 12.078125 0.578125 12.25 0.328125 12.328125 0 L 12.578125 -1.484375 C 12.734375 -2.390625 12.828125 -3.375 12.828125 -4.4375 L 12.828125 -6.65625 C 12.828125 -7.8125 12.734375 -9.046875 12.734375 -10.1875 L 12.578125 -15.53125 C 12.578125 -16.265625 12.5 -16.9375 12.5 -17.5 L 12.5 -32.953125 C 12.5 -33.9375 12.578125 -34.84375 12.578125 -35.828125 L 12.578125 -37.3125 C 12.90625 -36.65625 12.90625 -36.40625 12.984375 -36.25 L 14.375 -33.125 L 15.046875 -31.5625 L 15.53125 -30.484375 L 17.59375 -25.71875 L 18.578125 -23.671875 L 19.96875 -20.546875 L 20.625 -19.0625 L 21.53125 -17.09375 L 23.015625 -13.8125 L 24.40625 -10.765625 L 25.640625 -8.046875 L 26.875 -5.265625 L 27.453125 -4.109375 C 27.609375 -3.859375 27.703125 -3.609375 27.78125 -3.375 L 28.109375 -2.625 C 28.4375 -1.8125 28.765625 -1.15625 29.171875 -1.15625 C 31.71875 -0.90625 33.859375 -0.828125 35.671875 -0.828125 L 36.484375 -0.828125 C 38.875 -0.828125 38.46875 -2.21875 38.625 -3.78125 C 38.953125 -6.40625 38.796875 -8.796875 38.796875 -11.09375 C 38.796875 -11.75 38.875 -12.40625 38.875 -12.984375 L 38.875 -14.296875 C 38.875 -16.84375 39.03125 -19.640625 39.03125 -22.765625 L 39.03125 -26.21875 C 39.03125 -26.796875 39.125 -27.453125 39.125 -28.03125 L 39.125 -32.46875 C 39.125 -33.203125 39.203125 -33.9375 39.203125 -34.59375 L 39.203125 -39.53125 C 39.203125 -40.1875 39.28125 -40.765625 39.28125 -41.265625 L 39.28125 -42.328125 C 39.453125 -43.71875 39.453125 -45.03125 39.453125 -46.4375 L 39.453125 -47.34375 C 39.453125 -48 38.953125 -53.421875 38.953125 -54.25 C 35.171875 -54.734375 31.5625 -54.90625 27.9375 -54.484375 Z M 27.9375 -54.484375 "/></g></g></g><g fill="#547036" fill-opacity="1"><g transform="translate(565.68428, 418.684766)"><g><path d="M 16.359375 -4.03125 L 16.109375 -5.75 L 15.859375 -7.5625 C 15.78125 -8.796875 15.703125 -9.9375 15.703125 -11.171875 C 15.703125 -12.90625 15.859375 -14.625 15.859375 -16.359375 L 15.859375 -22.59375 C 15.859375 -23.171875 15.9375 -23.828125 16.03125 -24.40625 C 16.109375 -25.0625 16.109375 -25.640625 16.109375 -26.296875 C 16.109375 -27.859375 15.9375 -29.421875 15.78125 -30.984375 L 15.53125 -33.859375 C 15.375 -35.828125 15.28125 -37.71875 15.28125 -39.703125 L 15.28125 -45.453125 C 15.28125 -52.265625 15.78125 -58.6875 15.78125 -62.21875 C 15.859375 -62.796875 15.78125 -63.359375 15.703125 -64.109375 C 14.71875 -64.03125 13.96875 -63.859375 13.234375 -63.6875 C 12.5 -63.28125 5.828125 -64.109375 4.515625 -63.78125 C 4.359375 -63.78125 -2.796875 -63.609375 -3.28125 -63.53125 C -3.046875 -59.828125 -2.21875 -53.015625 0.578125 -52.515625 C 1.640625 -52.6875 2.21875 -52.765625 3.28125 -52.765625 L 4.28125 -52.765625 L 4.28125 -49.5625 C 4.28125 -48.984375 4.359375 -48.328125 4.359375 -47.671875 L 4.359375 -39.78125 C 4.359375 -36.984375 4.28125 -34.109375 4.28125 -31.3125 L 4.28125 -24.65625 C 4.28125 -24 4.1875 -23.421875 4.1875 -23.015625 C 4.1875 -18.90625 3.78125 -14.71875 3.78125 -10.609375 C 3.78125 -8.71875 4.03125 -6.984375 4.03125 -5.09375 L 4.1875 -2.296875 C 4.1875 -1.640625 4.28125 -1.0625 4.28125 -0.40625 C 4.28125 -0.171875 4.359375 0.25 4.6875 0.828125 C 7.96875 1.390625 11.828125 0.984375 15.78125 0.5 C 16.515625 -1.0625 16.515625 -2.546875 16.359375 -4.03125 Z M 1.0625 -52.515625 L 0.578125 -52.515625 C -0.078125 -52.4375 -0.90625 -52.359375 -2.140625 -52.265625 Z M 1.0625 -52.515625 "/></g></g></g><g fill="#547036" fill-opacity="1"><g transform="translate(584.835183, 418.684766)"><g><path d="M 39.28125 -37.390625 L 39.375 -36.578125 L 39.375 -35.75 C 39.375 -35.171875 39.453125 -34.6875 39.453125 -34.109375 L 39.703125 -30.90625 C 39.703125 -27.125 40.6875 -23.171875 40.6875 -19.484375 L 40.6875 -18.734375 L 40.921875 -15.78125 C 41.421875 -13.15625 41.59375 -9.28125 41.59375 -7.0625 L 41.75 -4.6875 C 41.75 -3.609375 41.828125 -2.953125 43.3125 -3.203125 C 44.796875 -3.375 46.4375 -3.703125 48 -3.703125 C 49.890625 -3.703125 53.25 -4.765625 53.75 -5.09375 L 53.75 -5.75 C 53.75 -6 53.828125 -6.25 53.828125 -6.5 C 53.828125 -7.71875 53.75 -9.046875 53.34375 -10.265625 L 52.921875 -11.75 L 52.515625 -13.15625 L 51.9375 -15.375 C 51.359375 -17.015625 51.359375 -18.40625 51.125 -19.96875 L 50.953125 -21.53125 L 50.796875 -23.171875 L 50.546875 -26.296875 C 50.546875 -32.875 49.8125 -38.375 49.5625 -41.09375 L 49.0625 -45.9375 C 48.734375 -47.828125 48.484375 -49.5625 48.328125 -51.453125 L 48.15625 -53.015625 C 47.921875 -54.984375 47.75 -56.875 47.75 -58.765625 C 42.984375 -58.109375 40.03125 -58.4375 36.734375 -57.859375 C 35.34375 -54.25 35.171875 -49.890625 33.703125 -46.109375 L 32.953125 -43.8125 L 32.375 -42.25 L 30.984375 -37.71875 L 30.578125 -36.25 L 29.171875 -30.984375 L 28.765625 -29.5 L 28.515625 -28.765625 C 28.359375 -28.109375 28.1875 -27.453125 27.9375 -26.875 L 27.703125 -26.375 L 27.53125 -27.046875 L 26.625 -30.734375 L 25.890625 -33.78125 C 25.640625 -34.84375 25.3125 -35.828125 24.984375 -36.90625 L 23.421875 -42.90625 C 23.265625 -43.390625 23.171875 -43.890625 23.015625 -44.296875 L 21.78125 -49.140625 C 21.125 -51.859375 20.546875 -54.578125 20.140625 -57.03125 L 19.96875 -57.78125 C 19.8125 -59.09375 19.484375 -60.25 19.3125 -61.234375 C 17.828125 -61.71875 16.4375 -61.890625 6.5 -61.890625 C 0.984375 -61.5625 -2.546875 -60.984375 -10.515625 -60.984375 C -10.515625 -58.359375 -10.9375 -55.5625 -11.015625 -52.84375 C -10.9375 -52.84375 -9.9375 -52.921875 -6.328125 -52.921875 C -5.671875 -52.921875 -4.9375 -53.015625 -4.1875 -53.015625 L 3.125 -53.015625 C 4.515625 -53.015625 5.5 -53.09375 5.828125 -53.09375 C 5.828125 -50.875 5.828125 -47.921875 5.5 -45.9375 L 5.265625 -43.5625 C 5.015625 -41.75 4.6875 -39.125 4.609375 -37.15625 L 4.609375 -36.484375 C 4.609375 -35.421875 4.28125 -34.1875 4.28125 -33.046875 L 3.9375 -29.171875 C 3.9375 -28.359375 3.78125 -27.609375 3.78125 -26.796875 L 3.78125 -25.390625 C 3.78125 -24.328125 3.609375 -23.421875 3.609375 -22.4375 L 3.375 -18.40625 C 3.125 -14.375 2.390625 -10.109375 2.390625 -6.078125 C 2.390625 -4.9375 2.21875 -3.9375 2.625 -2.953125 C 3.53125 -2.46875 10.359375 -2.953125 12 -3.53125 C 11.921875 -9.125 12.5 -14.21875 12.5 -15.28125 L 12.5 -16.84375 C 12.5 -17.828125 12.65625 -19.0625 12.734375 -19.96875 L 12.984375 -23.015625 C 12.984375 -30.078125 13.71875 -35.75 13.8125 -36.65625 C 13.8125 -37.5625 13.96875 -38.546875 14.046875 -39.53125 C 14.296875 -39.203125 14.46875 -38.796875 14.546875 -38.46875 L 14.71875 -36.15625 C 14.875 -35.171875 15.28125 -34.265625 15.453125 -33.203125 L 16.609375 -27.609375 C 16.84375 -26.296875 17.265625 -24.984375 17.5 -23.671875 L 18.484375 -19.0625 L 18.828125 -17.59375 L 20.21875 -11.265625 C 20.875 -7.484375 21.203125 -7.0625 22.109375 -5.671875 C 28.84375 -5.671875 28.515625 -5.59375 31.71875 -15.125 L 32.703125 -18.25 L 33.203125 -19.71875 L 35.34375 -26.703125 L 36.328125 -29.828125 L 39.03125 -37.96875 C 39.125 -37.8125 39.125 -37.5625 39.28125 -37.390625 Z M 39.28125 -37.390625 "/></g></g></g><g fill="#547036" fill-opacity="1"><g transform="translate(639.493265, 418.684766)"><g><path d="M 39.859375 -2.140625 L 39.703125 -3.125 L 39.28125 -5.828125 C 39.125 -6.734375 39.125 -7.71875 39.125 -8.625 C 39.125 -9.703125 39.375 -10.6875 39.375 -11.75 C 39.375 -12 39.28125 -12.328125 39.203125 -12.578125 L 39.03125 -13.5625 C 38.625 -14.953125 38.375 -16.4375 38.140625 -17.828125 L 37.8125 -19.234375 C 37.640625 -19.640625 37.5625 -20.140625 37.390625 -20.625 L 36.40625 -23.421875 L 36.15625 -24.328125 L 35.5 -27.125 L 35.015625 -30.40625 C 34.59375 -33.046875 34.59375 -36.40625 34.59375 -38.46875 L 34.4375 -40.4375 C 34.4375 -41.171875 34.1875 -42.078125 34.109375 -42.734375 L 33.703125 -45.125 L 33.375 -46.515625 L 33.046875 -48 L 32.546875 -50.296875 L 31.890625 -53.171875 C 31.890625 -53.34375 31.8125 -53.5 31.8125 -53.671875 C 32.140625 -54 34.109375 -53.921875 35.34375 -53.921875 C 37.0625 -53.921875 38.796875 -54.078125 40.515625 -54.15625 L 43.640625 -54.484375 C 46.84375 -55.234375 46.1875 -62.21875 46.1875 -64.4375 L 41.5 -64.1875 C 40.359375 -64.1875 39.125 -64.03125 37.96875 -64.03125 C 36.734375 -64.03125 35.5 -63.9375 34.4375 -63.9375 C 32.796875 -63.9375 31.234375 -63.859375 30.328125 -63.859375 C 29.671875 -63.859375 29.09375 -63.859375 28.765625 -63.9375 L 27.28125 -63.9375 C 25.890625 -63.9375 24.328125 -63.6875 23.015625 -63.609375 L 18.734375 -63.125 C 17.34375 -62.953125 15.9375 -62.796875 14.46875 -62.796875 L 12.078125 -62.796875 C 11.59375 -62.796875 11.171875 -62.875 10.6875 -62.875 L 8.390625 -62.875 C 5.5 -62.875 1.96875 -62.546875 -0.40625 -62.546875 C -1.3125 -62.546875 -2.21875 -62.546875 -3.046875 -62.703125 C -3.859375 -62.703125 -3.9375 -61.96875 -3.9375 -61.140625 L -4.4375 -54.984375 C -4.4375 -53.34375 -3.703125 -53.671875 -2.46875 -53.671875 C -1.15625 -53.671875 0.078125 -53.59375 1.390625 -53.59375 C 4.1875 -53.59375 7.0625 -54.078125 9.609375 -54.078125 L 10.765625 -54.078125 C 11.5 -54.078125 11.921875 -53.921875 11.921875 -53.09375 C 11.921875 -52.03125 11.171875 -49.484375 10.84375 -48.578125 L 10.4375 -47.171875 C 10.265625 -46.6875 10.265625 -46.265625 10.109375 -45.78125 L 9.375 -42.984375 C 9.046875 -42.078125 8.875 -41.09375 8.546875 -40.1875 L 7.640625 -36.90625 L 7.15625 -34.109375 L 6.90625 -32.625 L 6.734375 -31.234375 L 6.25 -28.4375 L 5.421875 -24.734375 L 5.09375 -23.421875 L 4.84375 -21.9375 L 4.109375 -18.078125 L 3.9375 -17.171875 C 3.78125 -16.03125 3.453125 -14.953125 3.28125 -13.8125 L 3.125 -12.828125 L 2.46875 -8.46875 L 1.890625 -5.671875 C 1.71875 -4.765625 1.484375 -3.703125 1.484375 -2.796875 C 1.484375 -2.046875 1.640625 -1.15625 2.046875 -0.5 L 6.65625 -0.25 L 9.046875 -0.078125 C 12.734375 -0.078125 12.5 -4.4375 12.40625 -4.4375 L 12.65625 -7.390625 C 12.828125 -8.796875 12.5 -10.109375 14.140625 -10.265625 L 16.03125 -10.4375 C 17.59375 -10.6875 19.234375 -10.609375 20.796875 -10.609375 C 21.453125 -10.609375 22.03125 -10.6875 22.6875 -10.6875 C 23.171875 -10.6875 23.59375 -10.765625 24.078125 -10.765625 L 25.484375 -10.765625 C 25.640625 -10.765625 25.8125 -10.84375 25.96875 -10.84375 L 26.46875 -10.84375 C 26.796875 -9.609375 26.953125 -8.390625 26.953125 -7.15625 L 26.953125 -5.828125 C 26.953125 -3.703125 27.703125 -2.296875 27.9375 -0.578125 C 40.109375 -1.71875 40.109375 -0.984375 39.859375 -2.140625 Z M 25.5625 -17.671875 C 24.484375 -17.671875 23.421875 -17.59375 22.359375 -17.59375 C 21.703125 -17.59375 21.046875 -17.5 20.375 -17.5 L 19.5625 -17.5 C 17.171875 -17.5 14.796875 -17.34375 12.40625 -17.34375 L 11.171875 -17.34375 L 11.75 -20.21875 L 12.25 -22.59375 L 12.65625 -24.65625 L 13.0625 -26.625 L 13.3125 -27.78125 L 14.140625 -32.546875 L 14.296875 -33.703125 C 14.296875 -35.921875 14.953125 -38.140625 15.203125 -38.875 L 15.453125 -39.609375 C 15.53125 -39.9375 15.78125 -40.515625 15.78125 -40.84375 L 16.03125 -41.59375 L 16.359375 -42.734375 L 16.84375 -44.625 L 17.421875 -46.515625 L 17.59375 -47.25 L 17.921875 -48.40625 L 18.15625 -49.234375 L 19.15625 -52.359375 C 19.8125 -51.703125 20.140625 -50.875 20.375 -49.96875 L 20.546875 -48.90625 C 20.546875 -47.34375 21.046875 -45.703125 21.046875 -44.140625 C 21.046875 -42.734375 21.453125 -41.34375 21.453125 -40.109375 L 21.609375 -38.546875 C 21.609375 -37.890625 21.78125 -37.234375 21.9375 -36.578125 L 22.515625 -32.953125 L 22.9375 -30.984375 L 23.171875 -29.828125 C 23.265625 -29.59375 23.171875 -29.265625 23.265625 -29.015625 L 23.75 -26.703125 C 23.828125 -26.46875 23.75 -26.140625 23.828125 -25.890625 L 24.40625 -23.265625 L 24.578125 -22.4375 C 24.65625 -22.1875 24.578125 -21.9375 24.65625 -21.703125 L 25.390625 -18.484375 Z M 25.5625 -17.671875 "/></g></g></g><g fill="#547036" fill-opacity="1"><g transform="translate(680.671799, 418.684766)"><g><path d="M 2.046875 -62.796875 C 2.21875 -57.359375 2.546875 -52.03125 2.71875 -46.59375 L 2.71875 -45.53125 C 2.71875 -44.875 2.796875 -44.140625 2.796875 -43.484375 L 2.796875 -39.375 C 2.796875 -38.296875 2.71875 -37.3125 2.71875 -36.25 L 2.71875 -33.28125 C 2.71875 -32.375 2.796875 -31.484375 2.875 -30.65625 L 2.875 -12.984375 C 2.875 -10.9375 2.953125 -8.546875 2.953125 -6.40625 L 2.953125 -2.625 C 2.875 -1.484375 2.796875 -0.40625 2.625 0.65625 C 4.03125 0.984375 12.15625 0.65625 13.484375 0.40625 L 15.609375 0.40625 C 16.359375 0.40625 17.015625 0.328125 17.671875 0.328125 L 18.734375 0.328125 C 22.1875 0.328125 25.5625 -0.25 29.265625 -0.25 C 31.3125 -0.25 33.046875 -0.078125 34.84375 -0.078125 C 36.484375 -0.40625 36.25 -4.359375 36.25 -6.828125 C 36.25 -7.5625 36 -9.453125 36 -9.9375 C 34.6875 -9.78125 33.375 -9.703125 32.140625 -9.703125 C 29.59375 -9.78125 26.625 -9.859375 23.828125 -9.78125 C 22.1875 -9.78125 20.375 -9.53125 18.828125 -9.28125 C 17.59375 -9.125 16.359375 -8.953125 15.125 -9.375 C 14.796875 -9.453125 14.546875 -9.609375 14.21875 -9.78125 L 14.21875 -17.171875 C 14.21875 -18 14.296875 -18.734375 14.296875 -19.484375 L 14.296875 -21.78125 C 14.296875 -27.453125 14.953125 -31.390625 14.546875 -37.5625 C 14.375 -40.109375 14.21875 -42.90625 14.21875 -45.453125 C 14.21875 -47.015625 14.375 -48.65625 14.375 -50.21875 C 14.375 -51.78125 14.375 -53.25 14.21875 -54.8125 C 13.8125 -57.859375 13.890625 -60.8125 13.5625 -64.265625 C 9.703125 -63.6875 5.921875 -63.28125 2.046875 -62.796875 Z M 2.046875 -62.796875 "/></g></g></g><g fill="#547036" fill-opacity="1"><g transform="translate(717.576325, 418.684766)"><g><path d="M 18.90625 -44.546875 C 18.984375 -44.875 18.984375 -45.203125 18.984375 -45.453125 C 18.984375 -46.515625 18.828125 -47.421875 18.484375 -48.078125 C 15.046875 -48.078125 11.5 -47.921875 7.96875 -47.921875 C 7.484375 -47.921875 6.984375 -48 6.5 -48 C 5.5 -48 3.78125 -48.15625 3.609375 -46.921875 L 5.015625 -15.703125 C 5.171875 -11.921875 5.5 -9.046875 6.40625 -8.546875 L 10.515625 -8.296875 C 11.171875 -8.296875 11.75 -8.21875 12.40625 -8.21875 C 13.484375 -8.21875 14.140625 -8.46875 14.46875 -8.953125 C 15.046875 -18.90625 16.03125 -24.65625 17.59375 -35.421875 Z M 1.96875 -2.46875 C 1.96875 -2.046875 1.890625 -0.90625 1.890625 -0.171875 C 1.890625 2.71875 3.78125 6 9.28125 6 L 10.1875 6 C 14.875 6 18.078125 5.59375 18.984375 4.609375 C 18.984375 3.609375 18.828125 2.625 18.484375 1.640625 C 17.5 -1.5625 16.609375 -3.9375 9.046875 -3.9375 C 6.734375 -3.9375 4.6875 -3.375 1.96875 -2.46875 Z M 1.96875 -2.46875 "/></g></g></g></svg>